<svg height="512pt" viewBox="-100 0 512 512" width="512pt" xmlns="http://www.w3.org/2000/svg"><path d="m232 512h-152c-44.113281 0-80-35.886719-80-80v-312c0-44.113281 35.886719-80 80-80h6v-5.714844c0-18.90625 15.378906-34.285156 34.285156-34.285156h71.429688c18.90625 0 34.285156 15.378906 34.285156 34.285156v5.714844h6c44.113281 0 80 35.886719 80 80v211c0 11.046875-8.953125 20-20 20s-20-8.953125-20-20v-211c0-22.054688-17.945312-40-40-40h-26c-11.046875 0-20-8.953125-20-20v-20h-60v20c0 11.046875-8.953125 20-20 20h-26c-22.054688 0-40 17.945312-40 40v312c0 22.054688 17.945312 40 40 40h152c22.054688 0 40-17.945312 40-40 0-11.046875 8.953125-20 20-20s20 8.953125 20 20c0 44.113281-35.886719 80-80 80zm-6.617188-239.710938c8.195313-9.476562 1.578126-24.289062-11-24.289062h-46.316406l36.59375-59h-70.984375l-46.082031 82.167969c-7.53125 13.421875 2.242188 29.832031 17.71875 29.832031h40.175781l-26.875 74.492188c-.417969.914062-.609375 1.75-.613281 2.507812-.015625 3.144531 2.714844 5.015625 6.210938 5 2.457031-.011719 5.050781-.996094 6.761718-2.699219zm0 0"/></svg>