<svg id="Filled_Line" viewBox="0 0 64 64" xmlns="http://www.w3.org/2000/svg" data-name="Filled Line"><g><path d="m13 4h24c2.2077 0 4 1.7923 4 4v47h-32v-47c0-2.2077 1.7923-4 4-4z" fill="#43a047"/><path d="m17 8h16v20h-16z" fill="#eceff1" transform="matrix(0 1 -1 0 43 -7)"/><path d="m8 54h34c1.1038 0 2 .8962 2 2v4h-38v-4c0-1.1038.8962-2 2-2z" fill="#388e3c"/><g><path d="m54.0611 18h4v6h-4c-.5519 0-1-.4481-1-1v-4c0-.5519.4481-1 1-1z" fill="#eceff1" transform="matrix(-1 0 0 -1 111.122 42)"/><path d="m52.0611 18h2v8c0 2.2077-1.7923 4-4 4h-2v-8c0-2.2077 1.7923-4 4-4z" fill="#43a047"/></g></g><g fill="#030611"><path d="m9 18.0469c.4141 0 .75-.3359.75-.75v-.9058c0-.4141-.3359-.75-.75-.75s-.75.3359-.75.75v.9058c0 .4141.3359.75.75.75z"/><path d="m15 26.75h20c.4141 0 .75-.3359.75-.75v-16c0-.4141-.3359-.75-.75-.75h-20c-.4141 0-.75.3359-.75.75v16c0 .4141.3359.75.75.75zm.75-16h18.5v14.5h-18.5z"/><path d="m15 32.75h20c.4141 0 .75-.3359.75-.75s-.3359-.75-.75-.75h-20c-.4141 0-.75.3359-.75.75s.3359.75.75.75z"/><path d="m23.8184 49.3179c.1172.0669.2451.0986.3716.0986.2603 0 .5132-.1357.6519-.3779l3.2383-5.6665c.1323-.2319.1313-.5171-.0024-.7485-.1343-.2314-.3813-.3735-.6489-.3735h-3.5649l2.5972-4.5444c.2056-.3594.0806-.8179-.2793-1.0234-.3569-.2041-.8164-.0806-1.0234.2793l-3.2383 5.6665c-.1323.2319-.1313.5171.0024.7485.1343.2314.3813.3735.6489.3735h3.5649l-2.5972 4.5444c-.2056.3594-.0806.8179.2793 1.0234z"/><path d="m57 17.25h-5c-2.6191 0-4.75 2.1309-4.75 4.75v18c0 1.792-1.458 3.25-3.25 3.25h-2.25v-35.25c0-2.6191-2.1309-4.75-4.75-4.75h-24c-2.6191 0-4.75 2.1309-4.75 4.75v5.7778c0 .4141.3359.75.75.75s.75-.3359.75-.75v-5.7778c0-1.792 1.458-3.25 3.25-3.25h24c1.792 0 3.25 1.458 3.25 3.25v45.25h-30.5v-33.3594c0-.4141-.3359-.75-.75-.75s-.75.3359-.75.75v33.3594h-.25c-1.5166 0-2.75 1.2334-2.75 2.75v4c0 .4141.3359.75.75.75h28.4487c.4141 0 .75-.3359.75-.75s-.3359-.75-.75-.75h-27.6987v-3.25c0-.6895.5605-1.25 1.25-1.25h34c.6895 0 1.25.5605 1.25 1.25v3.25h-5.1055c-.4141 0-.75.3359-.75.75s.3359.75.75.75h5.8555c.4141 0 .75-.3359.75-.75v-4c0-1.5166-1.2334-2.75-2.75-2.75h-.25v-8.5h2.25c2.6191 0 4.75-2.1309 4.75-4.75v-9.25h1.25c2.6191 0 4.75-2.1309 4.75-4.75v-1.25h2.25c.9648 0 1.75-.7852 1.75-1.75v-4c0-.9648-.7852-1.75-1.75-1.75zm-3.75 8.75c0 1.792-1.458 3.25-3.25 3.25h-1.25v-7.25c0-1.792 1.458-3.25 3.25-3.25h1.25zm4-3c0 .1377-.1123.25-.25.25h-2.25v-4.5h2.25c.1377 0 .25.1123.25.25z"/></g></svg>