<svg id="Layer_1" enable-background="new 0 0 512 512" viewBox="0 0 512 512" xmlns="http://www.w3.org/2000/svg"><g><g><g id="XMLID_1_" fill="#66bb6a"><path d="m461.2 126.3c0 3.1-2.5 5.6-5.6 5.6h-1.4c-.4-.1-.9-.2-1.3-.2s-.9.1-1.3.2h-64.3c-.4-.1-.9-.2-1.3-.2-.5 0-.9.1-1.3.2h-3.6c-3.1 0-5.6-2.5-5.6-5.6s2.5-5.6 5.6-5.6h2.7 21 27.2 21 2.6c3 0 5.5 2.4 5.6 5.6z"/><path d="m448 80.6v30.3h-11.3v-30.3c0-3.1 2.5-5.6 5.6-5.6 3.2-.1 5.7 2.4 5.7 5.6z"/><path d="m447.9 141.8v10.3c0 15.7-12.7 28.5-28.4 28.6-.1 0-.1 0-.2 0-15.8 0-28.6-12.8-28.6-28.6v-10.3z"/><path d="m399.8 80.6v30.3h-11.3v-30.3c0-3.1 2.5-5.6 5.6-5.6 3.1-.1 5.7 2.4 5.7 5.6z"/><path d="m325.8 442v13.5h-275v-13.5h8.7 24.7 208.4 24.8z"/><path d="m312.5 256.4v175.8h-15v-355.8c0-2.7-2.1-4.9-4.9-4.9h-208.4c-2.7 0-4.9 2.1-4.9 4.9v355.9h-15v-360.2c0-8.6 7-15.6 15.6-15.6h217c8.6 0 15.6 7 15.6 15.6v182.3c-.1.3-.1.7-.1 1s0 .7.1 1z"/><path d="m116.5 128.3h143.7v77.5h-143.7z"/><path d="m221.8 331.5-56.2 43.9 15.6-39.7c.9-2.2 0-4.9-2.1-6l-24.4-13.8 58.6-46.1-15.9 44.5c-.8 2.3.2 5 2.4 6z"/><path d="m287.8 81.2v351h-198.7v-351zm-24.9 134.3c3.9 0 7.2-3.2 7.1-7.1v-82.8c0-3.9-3.2-7.1-7.1-7.1h-149c-3.9 0-7.1 3.2-7.1 7.1v82.8c0 3.9 3.2 7.1 7.1 7.1zm-29 118.9c1.3-1 2-2.6 1.8-4.3-.1-1.7-1.2-3.1-2.6-3.9l-25-12.8 20-56.3c.7-2.1 0-4.4-1.8-5.7s-4.1-1.3-5.8.1l-77.6 61c-1.3 1-1.9 2.5-1.8 4.2.1 1.6 1 3.1 2.4 3.9l27.1 15.3-20.6 52.5c-.8 2.1-.1 4.4 1.6 5.8.9.7 1.9 1 2.9 1 1.1 0 2-.4 3-1z"/><path d="m424.4 190.2v142.5c-.1 17.1-14 31.1-31.1 31.1s-31-13.9-31-31v-45.4c0-15-12.2-27.1-27.1-27.1h-12.8v-9.7h12.8c20.3 0 37 16.5 37 37v45.3c0 11.8 9.5 21.3 21.3 21.3s21.3-9.5 21.3-21.3v-142.7c1.6.2 3.2.3 4.8.3 1.5 0 3.2-.1 4.8-.3z"/></g></g></g></svg>